
<svg xmlns="http://www.w3.org/2000/svg" style="display:none">
  <defs>
    <symbol id="arrow-left" viewBox="0 0 24 24"><path d="M19 12H5M12 19l-7-7 7-7"></path></symbol>
    <symbol id="arrow-right" viewBox="0 0 24 24"><path d="M5 12h14M12 5l7 7-7 7"></path></symbol>
    <symbol id="chevron-right" viewBox="0 0 24 24"><path d="M9 18l6-6-6-6"></path></symbol>
    <symbol id="chevron-down" viewBox="0 0 24 24"><path d="M6 9l6 6 6-6"></path></symbol>
    <symbol id="check" viewBox="0 0 24 24"><path d="M20 6L9 17l-5-5"></path></symbol>
    <symbol id="x" viewBox="0 0 24 24"><path d="M18 6L6 18M6 6l12 12"></path></symbol>
    <symbol id="plus" viewBox="0 0 24 24"><path d="M12 5v14M5 12h14"></path></symbol>
    <symbol id="search" viewBox="0 0 24 24"><circle cx="11" cy="11" r="8"></circle><path d="m21 21-4.3-4.3"></path></symbol>
    <symbol id="filter" viewBox="0 0 24 24"><path d="M22 3H2l8 9.5V19l4 2v-8.5L22 3z"></path></symbol>
    <symbol id="sliders" viewBox="0 0 24 24"><line x1="4" y1="21" x2="4" y2="14"></line><line x1="4" y1="10" x2="4" y2="3"></line><line x1="12" y1="21" x2="12" y2="12"></line><line x1="12" y1="8" x2="12" y2="3"></line><line x1="20" y1="21" x2="20" y2="16"></line><line x1="20" y1="12" x2="20" y2="3"></line><line x1="1" y1="14" x2="7" y2="14"></line><line x1="9" y1="8" x2="15" y2="8"></line><line x1="17" y1="16" x2="23" y2="16"></line></symbol>
    <symbol id="home" viewBox="0 0 24 24"><path d="m3 9 9-7 9 7v11a2 2 0 0 1-2 2H5a2 2 0 0 1-2-2z"></path><polyline points="9 22 9 12 15 12 15 22"></polyline></symbol>
    <symbol id="briefcase" viewBox="0 0 24 24"><rect x="2" y="7" width="20" height="14" rx="2"></rect><path d="M16 21V5a2 2 0 0 0-2-2h-4a2 2 0 0 0-2 2v16"></path></symbol>
    <symbol id="message" viewBox="0 0 24 24"><path d="M21 15a2 2 0 0 1-2 2H7l-4 4V5a2 2 0 0 1 2-2h14a2 2 0 0 1 2 2z"></path></symbol>
    <symbol id="user" viewBox="0 0 24 24"><path d="M20 21v-2a4 4 0 0 0-4-4H8a4 4 0 0 0-4 4v2"></path><circle cx="12" cy="7" r="4"></circle></symbol>
    <symbol id="bell" viewBox="0 0 24 24"><path d="M6 8a6 6 0 0 1 12 0c0 7 3 9 3 9H3s3-2 3-9"></path><path d="M10.3 21a1.94 1.94 0 0 0 3.4 0"></path></symbol>
    <symbol id="settings" viewBox="0 0 24 24"><circle cx="12" cy="12" r="3"></circle><path d="M19.4 15a1.65 1.65 0 0 0 .33 1.82l.06.06a2 2 0 0 1 0 2.83 2 2 0 0 1-2.83 0l-.06-.06a1.65 1.65 0 0 0-1.82-.33 1.65 1.65 0 0 0-1 1.51V21a2 2 0 0 1-4 0v-.09A1.65 1.65 0 0 0 9 19.4a1.65 1.65 0 0 0-1.82.33l-.06.06a2 2 0 0 1-2.83 0 2 2 0 0 1 0-2.83l.06-.06a1.65 1.65 0 0 0 .33-1.82 1.65 1.65 0 0 0-1.51-1H3a2 2 0 0 1 0-4h.09A1.65 1.65 0 0 0 4.6 9a1.65 1.65 0 0 0-.33-1.82l-.06-.06a2 2 0 0 1 0-2.83 2 2 0 0 1 2.83 0l.06.06a1.65 1.65 0 0 0 1.82.33H9a1.65 1.65 0 0 0 1-1.51V3a2 2 0 0 1 4 0v.09a1.65 1.65 0 0 0 1 1.51 1.65 1.65 0 0 0 1.82-.33l.06-.06a2 2 0 0 1 2.83 0 2 2 0 0 1 0 2.83l-.06.06a1.65 1.65 0 0 0-.33 1.82V9a1.65 1.65 0 0 0 1.51 1H21a2 2 0 0 1 0 4h-.09a1.65 1.65 0 0 0-1.51 1z"></path></symbol>
    <symbol id="logout" viewBox="0 0 24 24"><path d="M9 21H5a2 2 0 0 1-2-2V5a2 2 0 0 1 2-2h4"></path><polyline points="16 17 21 12 16 7"></polyline><line x1="21" y1="12" x2="9" y2="12"></line></symbol>
    <symbol id="map-pin" viewBox="0 0 24 24"><path d="M21 10c0 7-9 13-9 13s-9-6-9-13a9 9 0 0 1 18 0z"></path><circle cx="12" cy="10" r="3"></circle></symbol>
    <symbol id="calendar" viewBox="0 0 24 24"><rect x="3" y="4" width="18" height="18" rx="2"></rect><line x1="16" y1="2" x2="16" y2="6"></line><line x1="8" y1="2" x2="8" y2="6"></line><line x1="3" y1="10" x2="21" y2="10"></line></symbol>
    <symbol id="clock" viewBox="0 0 24 24"><circle cx="12" cy="12" r="10"></circle><polyline points="12 6 12 12 16 14"></polyline></symbol>
    <symbol id="phone" viewBox="0 0 24 24"><path d="M22 16.92v3a2 2 0 0 1-2.18 2 19.79 19.79 0 0 1-8.63-3.07 19.5 19.5 0 0 1-6-6 19.79 19.79 0 0 1-3.07-8.67A2 2 0 0 1 4.11 2h3a2 2 0 0 1 2 1.72 12.84 12.84 0 0 0 .7 2.81 2 2 0 0 1-.45 2.11L8.09 9.91a16 16 0 0 0 6 6l1.27-1.27a2 2 0 0 1 2.11-.45 12.84 12.84 0 0 0 2.81.7A2 2 0 0 1 22 16.92z"></path></symbol>
    <symbol id="mail" viewBox="0 0 24 24"><rect x="2" y="4" width="20" height="16" rx="2"></rect><polyline points="22,6 12,13 2,6"></polyline></symbol>
    <symbol id="euro" viewBox="0 0 24 24"><path d="M4 10h12M4 14h9M19 6.7A6.4 6.4 0 0 0 14.5 5C10.4 5 7 8.6 7 13s3.4 8 7.5 8c1.7 0 3.4-.6 4.5-1.7"></path></symbol>
    <symbol id="building" viewBox="0 0 24 24"><rect x="4" y="2" width="16" height="20" rx="2"></rect><line x1="9" y1="22" x2="9" y2="18"></line><line x1="15" y1="22" x2="15" y2="18"></line><line x1="9" y1="6" x2="9" y2="6"></line><line x1="15" y1="6" x2="15" y2="6"></line><line x1="9" y1="10" x2="9" y2="10"></line><line x1="15" y1="10" x2="15" y2="10"></line><line x1="9" y1="14" x2="9" y2="14"></line><line x1="15" y1="14" x2="15" y2="14"></line></symbol>
    <symbol id="ruler" viewBox="0 0 24 24"><path d="M21.3 8.7L8.7 21.3a2.4 2.4 0 0 1-3.4 0L2.7 18.7a2.4 2.4 0 0 1 0-3.4L15.3 2.7a2.4 2.4 0 0 1 3.4 0l2.6 2.6a2.4 2.4 0 0 1 0 3.4z"></path><path d="M14 7l3 3M9 12l3 3M5 16l3 3M16 5l-3-3"></path></symbol>
    <symbol id="layers" viewBox="0 0 24 24"><polygon points="12 2 2 7 12 12 22 7 12 2"></polygon><polyline points="2 17 12 22 22 17"></polyline><polyline points="2 12 12 17 22 12"></polyline></symbol>
    <symbol id="document" viewBox="0 0 24 24"><path d="M14 2H6a2 2 0 0 0-2 2v16a2 2 0 0 0 2 2h12a2 2 0 0 0 2-2V8z"></path><polyline points="14 2 14 8 20 8"></polyline><line x1="16" y1="13" x2="8" y2="13"></line><line x1="16" y1="17" x2="8" y2="17"></line></symbol>
    <symbol id="shield-check" viewBox="0 0 24 24"><path d="M12 22s8-4 8-10V5l-8-3-8 3v7c0 6 8 10 8 10z"></path><path d="m9 12 2 2 4-4"></path></symbol>
    <symbol id="award" viewBox="0 0 24 24"><circle cx="12" cy="8" r="6"></circle><polyline points="8.21 13.89 7 23 12 20 17 23 15.79 13.88"></polyline></symbol>
    <symbol id="upload" viewBox="0 0 24 24"><path d="M21 15v4a2 2 0 0 1-2 2H5a2 2 0 0 1-2-2v-4"></path><polyline points="17 8 12 3 7 8"></polyline><line x1="12" y1="3" x2="12" y2="15"></line></symbol>
    <symbol id="camera" viewBox="0 0 24 24"><path d="M23 19a2 2 0 0 1-2 2H3a2 2 0 0 1-2-2V8a2 2 0 0 1 2-2h4l2-3h6l2 3h4a2 2 0 0 1 2 2z"></path><circle cx="12" cy="13" r="4"></circle></symbol>
    <symbol id="image" viewBox="0 0 24 24"><rect x="3" y="3" width="18" height="18" rx="2"></rect><circle cx="8.5" cy="8.5" r="1.5"></circle><polyline points="21 15 16 10 5 21"></polyline></symbol>
    <symbol id="trash" viewBox="0 0 24 24"><polyline points="3 6 5 6 21 6"></polyline><path d="M19 6v14a2 2 0 0 1-2 2H7a2 2 0 0 1-2-2V6m3 0V4a2 2 0 0 1 2-2h4a2 2 0 0 1 2 2v2"></path></symbol>
    <symbol id="edit" viewBox="0 0 24 24"><path d="M11 4H4a2 2 0 0 0-2 2v14a2 2 0 0 0 2 2h14a2 2 0 0 0 2-2v-7"></path><path d="m18.5 2.5 3 3L12 15l-4 1 1-4 9.5-9.5z"></path></symbol>
    <symbol id="alert" viewBox="0 0 24 24"><circle cx="12" cy="12" r="10"></circle><line x1="12" y1="8" x2="12" y2="12"></line><line x1="12" y1="16" x2="12" y2="16"></line></symbol>
    <symbol id="info" viewBox="0 0 24 24"><circle cx="12" cy="12" r="10"></circle><line x1="12" y1="16" x2="12" y2="12"></line><line x1="12" y1="8" x2="12" y2="8"></line></symbol>
    <symbol id="zap" viewBox="0 0 24 24"><polygon points="13 2 3 14 12 14 11 22 21 10 12 10 13 2"></polygon></symbol>
    <symbol id="sun" viewBox="0 0 24 24"><circle cx="12" cy="12" r="4"></circle><line x1="12" y1="2" x2="12" y2="4"></line><line x1="12" y1="20" x2="12" y2="22"></line><line x1="4.93" y1="4.93" x2="6.34" y2="6.34"></line><line x1="17.66" y1="17.66" x2="19.07" y2="19.07"></line><line x1="2" y1="12" x2="4" y2="12"></line><line x1="20" y1="12" x2="22" y2="12"></line><line x1="4.93" y1="19.07" x2="6.34" y2="17.66"></line><line x1="17.66" y1="6.34" x2="19.07" y2="4.93"></line></symbol>
    <symbol id="thermometer" viewBox="0 0 24 24"><path d="M14 14.76V3.5a2.5 2.5 0 0 0-5 0v11.26a4.5 4.5 0 1 0 5 0z"></path></symbol>
    <symbol id="droplet" viewBox="0 0 24 24"><path d="M12 2.69l5.66 5.66a8 8 0 1 1-11.31 0z"></path></symbol>
    <symbol id="wrench" viewBox="0 0 24 24"><path d="M14.7 6.3a1 1 0 0 0 0 1.4l1.6 1.6a1 1 0 0 0 1.4 0l3.77-3.77a6 6 0 0 1-7.94 7.94l-6.91 6.91a2.12 2.12 0 0 1-3-3l6.91-6.91a6 6 0 0 1 7.94-7.94l-3.76 3.76z"></path></symbol>
    <symbol id="hammer" viewBox="0 0 24 24"><path d="m15 12-8.4 8.4a2.1 2.1 0 0 1-2.97 0l-.04-.04a2.1 2.1 0 0 1 0-2.97L12 9"></path><path d="m22 7-1.5-1.5a2.83 2.83 0 0 0-4 0L13 8.5l4 4 3.5-3.5a2.83 2.83 0 0 0 0-4z"></path><path d="M9 12 11 14"></path></symbol>
    <symbol id="utensils" viewBox="0 0 24 24"><path d="M3 2v7c0 1.1.9 2 2 2h4a2 2 0 0 0 2-2V2M7 2v20M21 15V2a5 5 0 0 0-5 5v6c0 1.1.9 2 2 2h3zM21 15v7"></path></symbol>
    <symbol id="paintbrush" viewBox="0 0 24 24"><path d="M18.37 2.63 14 7l-1.59-1.59a2 2 0 0 0-2.82 0L8 7l9 9 1.59-1.59a2 2 0 0 0 0-2.82L17 10l4.37-4.37a2.12 2.12 0 1 0-3-3z"></path><path d="M9 8c-2 3-4 3.5-7 4l8 10c2-1 6-5 6-7"></path><path d="M14.5 17.5 4.5 15"></path></symbol>
    <symbol id="trending-up" viewBox="0 0 24 24"><polyline points="23 6 13.5 15.5 8.5 10.5 1 18"></polyline><polyline points="17 6 23 6 23 12"></polyline></symbol>
    <symbol id="trending-down" viewBox="0 0 24 24"><polyline points="23 18 13.5 8.5 8.5 13.5 1 6"></polyline><polyline points="17 18 23 18 23 12"></polyline></symbol>
    <symbol id="more" viewBox="0 0 24 24"><circle cx="12" cy="12" r="1.5"></circle><circle cx="19" cy="12" r="1.5"></circle><circle cx="5" cy="12" r="1.5"></circle></symbol>
    <symbol id="external" viewBox="0 0 24 24"><path d="M18 13v6a2 2 0 0 1-2 2H5a2 2 0 0 1-2-2V8a2 2 0 0 1 2-2h6"></path><polyline points="15 3 21 3 21 9"></polyline><line x1="10" y1="14" x2="21" y2="3"></line></symbol>
    <symbol id="star" viewBox="0 0 24 24"><polygon points="12 2 15.09 8.26 22 9.27 17 14.14 18.18 21.02 12 17.77 5.82 21.02 7 14.14 2 9.27 8.91 8.26 12 2"></polygon></symbol>
    <symbol id="lock" viewBox="0 0 24 24"><rect x="3" y="11" width="18" height="11" rx="2"></rect><path d="M7 11V7a5 5 0 0 1 10 0v4"></path></symbol>
    <symbol id="eye" viewBox="0 0 24 24"><path d="M1 12s4-8 11-8 11 8 11 8-4 8-11 8-11-8-11-8z"></path><circle cx="12" cy="12" r="3"></circle></symbol>
    <symbol id="send" viewBox="0 0 24 24"><line x1="22" y1="2" x2="11" y2="13"></line><polygon points="22 2 15 22 11 13 2 9 22 2"></polygon></symbol>
    <symbol id="paperclip" viewBox="0 0 24 24"><path d="m21.44 11.05-9.19 9.19a6 6 0 0 1-8.49-8.49l9.19-9.19a4 4 0 0 1 5.66 5.66l-9.2 9.19a2 2 0 0 1-2.83-2.83l8.49-8.48"></path></symbol>
    <symbol id="check-circle" viewBox="0 0 24 24"><path d="M22 11.08V12a10 10 0 1 1-5.93-9.14"></path><polyline points="22 4 12 14.01 9 11.01"></polyline></symbol>
    <symbol id="x-circle" viewBox="0 0 24 24"><circle cx="12" cy="12" r="10"></circle><line x1="15" y1="9" x2="9" y2="15"></line><line x1="9" y1="9" x2="15" y2="15"></line></symbol>
    <symbol id="refresh" viewBox="0 0 24 24"><polyline points="23 4 23 10 17 10"></polyline><polyline points="1 20 1 14 7 14"></polyline><path d="M3.51 9a9 9 0 0 1 14.85-3.36L23 10M1 14l4.64 4.36A9 9 0 0 0 20.49 15"></path></symbol>
    <symbol id="grip" viewBox="0 0 24 24"><circle cx="9" cy="6" r="1"></circle><circle cx="9" cy="12" r="1"></circle><circle cx="9" cy="18" r="1"></circle><circle cx="15" cy="6" r="1"></circle><circle cx="15" cy="12" r="1"></circle><circle cx="15" cy="18" r="1"></circle></symbol>
    <symbol id="sparkles" viewBox="0 0 24 24"><path d="m12 3-1.9 5.8a2 2 0 0 1-1.3 1.3L3 12l5.8 1.9a2 2 0 0 1 1.3 1.3L12 21l1.9-5.8a2 2 0 0 1 1.3-1.3L21 12l-5.8-1.9a2 2 0 0 1-1.3-1.3z"></path></symbol>
  </defs>
</svg>